<?xml version="1.0" encoding="iso-8859-1"?>
<!-- Generator: Adobe Illustrator 19.0.0, SVG Export Plug-In . SVG Version: 6.00 Build 0)  -->
<svg version="1.1" id="Capa_1" xmlns="http://www.w3.org/2000/svg" xmlns:xlink="http://www.w3.org/1999/xlink" x="0px" y="0px"
	 viewBox="0 0 512 512" style="enable-background:new 0 0 512 512;" xml:space="preserve">
<path style="fill:#FF5368;" d="M239.439,15.523l-70.927,89.915c-6.042,7.659-6.042,18.466,0,26.125l70.927,89.915
	c8.437,10.696,24.646,10.696,33.083,0l70.927-89.915c6.042-7.659,6.042-18.466,0-26.125l-70.927-89.915
	C264.085,4.827,247.876,4.827,239.439,15.523z"/>
<path style="fill:#C5324F;" d="M272.522,15.523c-8.437-10.696-24.646-10.696-33.084,0l-2.563,3.249l64.011,81.149
	c8.595,10.896,8.595,26.264,0,37.159l-64.011,81.149l2.563,3.25c8.437,10.696,24.646,10.696,33.084,0l70.927-89.916
	c6.042-7.659,6.042-18.466,0-26.125L272.522,15.523z"/>
<path style="fill:#FF5368;" d="M336.565,352.03c-22.804-25.492-61.152-26.027-84.609-1.605
	c-23.456-24.422-61.805-23.887-84.609,1.605c-21.721,24.282-20.053,62.511,2.483,85.975l50.955,53.053
	c17.215,17.924,45.126,17.924,62.341,0l50.955-53.053C356.618,414.541,358.286,376.312,336.565,352.03z"/>
<path style="fill:#C5324F;" d="M336.565,352.03c-5.148-5.754-11.092-10.225-17.473-13.436c11.941,23.511,7.726,53.57-11.173,73.248
	l-50.955,53.053c-15.291,15.92-39.013,17.687-56.19,5.326l20.013,20.837c17.215,17.924,45.126,17.924,62.341,0l50.955-53.053
	C356.618,414.541,358.286,376.312,336.565,352.03z"/>
<path style="fill:#6C7A88;" d="M164.459,203.34c-0.455-31.364-26.006-56.654-57.479-56.654c-31.569,0-57.185,25.444-57.486,56.941
	c-24.231,6.764-42.013,28.985-42.013,55.374c0,31.756,25.744,57.5,57.5,57.5c12.282,0,23.653-3.865,32.995-10.425h19.016
	c9.341,6.56,20.713,10.425,32.994,10.425c31.756,0,57.5-25.744,57.5-57.5C207.486,232.244,189.209,209.758,164.459,203.34z"/>
<path style="fill:#35404A;" d="M204.431,240.489L204.431,240.489c-6.183-18.187-21.214-32.285-39.972-37.148
	c-0.455-31.364-26.006-56.654-57.479-56.654c0,15.037,6.694,27.532,17.311,36.194c6.095,4.972,10.049,12.493,10.17,20.895l0,0
	c0.196,13.505,9.393,25.214,22.467,28.604c12.104,3.14,20.558,14.086,20.558,26.622c0,9.316-6.53,17.355-15.647,19.272
	c-3.824,0.804-7.789,1.227-11.854,1.228c-23.454,0-25.078-10.404-43.215-10.425c-5.249-0.006-10.396,1.37-15.039,3.819
	c-25.275,13.332-55.733,5.738-72.304-15.764c-3.969-5.149-12.164-2.211-11.897,4.284c0.008,0.201,0.018,0.403,0.028,0.605
	c1.529,29.714,25.973,53.591,55.714,54.456c12.934,0.376,24.93-3.537,34.702-10.399l-19.286,25.423
	c-5.693,7.214-0.555,17.815,8.635,17.815h40.32c9.19,0,14.328-10.601,8.635-17.815l-19.286-25.423
	c10.237,7.19,22.914,11.141,36.554,10.317c19.146-1.157,35.892-11.85,45.459-27.392h0.039
	C207.668,274.927,210.057,257.368,204.431,240.489z"/>
<path style="fill:#6C7A88;" d="M319.872,297.385c22.804,25.196,61.152,25.724,84.609,1.586
	c23.456,24.138,61.805,23.609,84.609-1.586c21.721-24,20.053-61.784-2.483-84.975l-50.955-52.436
	c-17.215-17.715-45.126-17.715-62.341,0l-50.955,52.436C299.819,235.601,298.15,273.385,319.872,297.385z"/>
<path style="fill:#35404A;" d="M486.606,212.41l-50.955-52.437c-7.547-7.766-17.149-12.126-27.004-13.083
	c-5.344,11.033-3.549,24.69,5.489,33.991l50.955,52.437c0.349,0.358,0.688,0.724,1.017,1.095
	c15.744,17.745,2.081,45.888-21.633,45.249c-8.705-0.235-17.369-2.449-25.301-6.645c-9.124-4.827-20.145-4.92-29.257-0.069
	c-22.726,12.097-51.517,7.91-70.046-12.562c-0.06-0.066-0.119-0.132-0.178-0.198c-5.519-6.154-15.718-1.462-14.39,6.697
	c1.804,11.085,6.618,21.716,14.568,30.5c20.007,22.105,51.977,25.219,75.36,9.35L375.685,331.5
	c-5.693,7.214-0.555,17.815,8.635,17.815h40.32c9.19,0,14.328-10.601,8.635-17.815l-19.547-24.767
	c23.393,15.874,55.369,12.73,75.355-9.342C510.703,273.514,509.224,235.685,486.606,212.41z"/>
<path d="M233.552,226.121c2.761,3.51,6.19,6.239,10.199,8.14c3.79,1.79,7.99,2.74,12.159,2.74h0.14c4.171,0,8.369-0.95,12.159-2.74
	c4.01-1.9,7.44-4.63,10.199-8.14l70.924-89.91c3.96-5.03,6.14-11.32,6.14-17.71c0-6.4-2.181-12.69-6.14-17.71l-70.924-89.91
	c-2.76-3.51-6.189-6.25-10.199-8.14c-3.79-1.79-7.999-2.74-12.169-2.74h-0.13c-4.17,0-8.369,0.95-12.159,2.74
	c-4.009,1.89-7.439,4.63-10.189,8.13c-0.011,0-0.011,0-0.011,0.01c-2.559,3.24-2,7.97,1.24,10.53c1.34,1.05,2.94,1.609,4.64,1.609
	c2.319,0,4.469-1.04,5.899-2.85c2.62-3.311,6.4-5.15,10.65-5.17c4.25,0.02,8.029,1.859,10.649,5.17l70.925,89.91
	c1.899,2.42,2.91,5.33,2.92,8.42c-0.01,3.09-1.02,6-2.92,8.42l-70.925,89.91c-2.62,3.31-6.399,5.149-10.649,5.17
	c-4.25-0.021-8.03-1.86-10.65-5.17l-70.924-89.91c-1.91-2.43-2.92-5.34-2.92-8.42c0-3.09,1.01-6,2.92-8.42l52.346-66.36
	c2.56-3.25,2-7.97-1.25-10.53c-1.33-1.06-2.939-1.609-4.639-1.609c-2.31,0-4.45,1.029-5.879,2.84c0,0-0.01,0-0.01,0.01
	l-52.347,66.36c-3.96,5.02-6.139,11.31-6.139,17.71c0,6.399,2.18,12.689,6.139,17.71L233.552,226.121z"/>
<path d="M142.169,325.841l-2.82-3.71c21.325,3.475,41.824-3.695,56.236-17.9c11.719-11.56,18.588-26.92,19.338-43.27
	c0.04-0.97,0.061-1.96,0.061-2.96c0-7.4-1.23-14.66-3.67-21.58c-2.35-6.68-5.77-12.91-10.159-18.51
	c-4.34-5.54-9.53-10.32-15.399-14.19c-5.969-3.95-12.499-6.85-19.409-8.64c-0.649-0.17-1.319-0.25-1.989-0.24
	c-2,0.03-3.88,0.84-5.27,2.27c-1.399,1.44-2.149,3.33-2.12,5.341c0.05,3.359,2.36,6.3,5.62,7.149
	c22.038,5.72,37.417,25.62,37.398,48.4c0,0.819-0.01,1.569-0.05,2.3c-1.522,35.283-38.904,58.228-71.225,42.94h-0.01
	c-1.25-0.601-2.69-0.931-4.049-0.931h-0.04c-2.54,0.01-5,1.05-6.77,2.86c-1.75,1.79-2.72,4.16-2.729,6.649
	c-0.021,2.021,0.689,4.11,1.939,5.74l13.259,17.471l0.091,0.109c0.529,0.7,0.76,1.311,0.769,2.12c0.01,0.88-0.38,1.86-1.01,2.51
	c-0.61,0.61-1.27,1.021-2.51,1.04H87.333c-1.24-0.02-1.9-0.43-2.51-1.04c-0.62-0.649-1.02-1.63-1.011-2.51
	c0.021-0.81,0.24-1.42,0.77-2.11l13.349-17.59l0.03-0.05c1.22-1.59,1.93-3.72,1.91-5.69c-0.01-2.5-0.98-4.869-2.73-6.659
	c-1.769-1.811-4.239-2.851-6.769-2.851h-0.021c-1.39,0-2.809,0.33-4.08,0.94c-6.689,3.149-13.849,4.75-21.278,4.75
	c-1.08,0-2.181-0.04-3.27-0.11c-24.948-1.55-45.436-22.33-46.666-47.3v-0.03c-0.04-0.8-0.06-1.64-0.06-2.56
	c-0.021-22.34,14.999-42.141,36.527-48.15c3.2-0.89,5.45-3.83,5.48-7.149c0.26-27.301,22.678-49.511,49.977-49.511h0.02
	c17.768,0,33.837,9.141,42.966,24.45c1.34,2.26,3.82,3.66,6.45,3.66c1.34,0,2.67-0.36,3.83-1.05c3.55-2.12,4.719-6.73,2.61-10.28
	c-5.65-9.51-13.699-17.47-23.269-23.03c-9.869-5.72-21.138-8.75-32.597-8.75c-16.309,0-31.898,6.061-43.897,17.07
	c-11.929,10.93-19.308,25.79-20.808,41.84c-6.11,2.271-11.829,5.46-17.009,9.46c-5.139,3.971-9.639,8.66-13.389,13.96
	C4.12,231.511,0,244.471,0,258.001c0,1.13,0.029,2.26,0.08,3.37l0.01,0.01c0.82,15.86,7.45,30.86,18.669,42.229
	c11.23,11.391,26.148,18.23,42.007,19.25c1.36,0.091,2.78,0.141,4.23,0.141h0.02c3.55,0,7.129-0.3,10.629-0.87l-2.889,3.8
	c-2.559,3.25-3.96,7.28-3.94,11.33c0.011,4.78,1.83,9.33,5.11,12.81c3.4,3.65,8.259,5.74,13.339,5.74h40.468
	c5.069,0,9.929-2.09,13.328-5.74c3.29-3.479,5.1-8.029,5.11-12.81c0.021-4.09-1.4-8.14-3.99-11.41
	C142.179,325.851,142.169,325.851,142.169,325.841z"/>
<path d="M323.645,330.541c-8.28-3.681-17.039-5.54-26.048-5.54h-0.11c-8.549,0-16.909,1.689-24.838,5.01
	c-8.179,3.43-15.519,8.46-21.788,14.93c-0.79,0.641-1.77,0.99-2.78,0.99h-0.55c-4.139,0-7.499,3.36-7.499,7.5
	c0,4.13,3.36,7.5,7.499,7.5h0.55c4.7,0,9.24-1.71,12.779-4.8c0.1-0.09,0.21-0.19,0.31-0.29c0.08-0.07,0.15-0.14,0.221-0.21
	c0-0.01,0-0.01,0-0.01c9.669-10.061,22.508-15.61,36.147-15.62c14.329,0.02,27.628,6.06,37.457,17.03
	c8.68,9.72,13.47,22.55,13.479,36.13c0,14.779-5.75,29.239-15.779,39.68l-50.956,53.07c-6.86,7.14-16.009,11.08-25.758,11.09
	c-9.749-0.01-18.899-3.95-25.758-11.09l-50.957-53.07c-10.029-10.44-15.778-24.9-15.778-39.68c0.01-13.58,4.79-26.41,13.478-36.13
	c9.82-10.971,23.128-17.011,37.457-17.03c4.79,0,9.55,0.7,14.14,2.069c0.699,0.211,1.43,0.32,2.16,0.32
	c3.279,0,6.229-2.2,7.179-5.35c1.18-3.971-1.08-8.15-5.04-9.34c-5.99-1.79-12.189-2.7-18.439-2.7h-0.069
	c-8.999,0-17.769,1.859-26.049,5.54c-8.569,3.81-16.148,9.359-22.518,16.49c-11.159,12.489-17.308,28.869-17.298,46.13
	c0,9.17,1.689,18.14,5.029,26.659c3.44,8.79,8.46,16.66,14.93,23.41l50.956,53.07c4.88,5.1,10.619,9.05,17.049,11.76
	c6.209,2.61,12.77,3.94,19.489,3.94h0.08c6.719,0,13.278-1.33,19.488-3.94c6.43-2.71,12.159-6.66,17.049-11.76l50.945-53.07
	c6.48-6.75,11.499-14.62,14.939-23.41c3.34-8.52,5.03-17.489,5.03-26.659c0.01-17.261-6.14-33.641-17.298-46.13
	C339.793,339.9,332.215,334.351,323.645,330.541z"/>
<path d="M498.461,213.908c-0.001-0.001-0.001-0.002-0.002-0.003c-5.106-7.051-59.431-62.093-59.858-62.479
	c-9.885-8.957-22.409-12.809-29.243-12.951l0.005-0.05c-15.427-1.497-30.521,4.087-41.437,15.321l-50.952,52.437
	c-23.61,24.298-26.663,62.889-7.104,89.764c8.982,12.345,21.959,21.254,36.544,25.089c8.539,2.243,17.42,2.705,26.05,1.433
	l-2.672,3.385c-4.428,5.612-5.243,13.096-2.125,19.53s9.496,10.431,16.646,10.431h40.317c7.15,0,13.528-3.997,16.646-10.431
	c3.118-6.435,2.304-13.918-2.126-19.53l-2.646-3.354c21.223,3.162,43.091-4.396,58.129-21.082
	C516.256,277.531,517.866,240.729,498.461,213.908z M483.503,291.362c-14.805,16.43-38.139,21.403-58.063,12.377
	c-4.007-1.813-8.697-0.666-11.406,2.796c-2.707,3.457-2.697,8.282,0.026,11.735l13.317,16.875c1.226,1.554,0.69,3.102,0.402,3.694
	c-0.287,0.594-1.17,1.974-3.149,1.974h-40.317c-1.979,0-2.862-1.38-3.149-1.974c-0.288-0.593-0.824-2.141,0.402-3.694l13.308-16.863
	c2.725-3.451,2.735-8.282,0.021-11.749c-1.848-2.36-4.616-3.646-7.458-3.646c-1.32,0-2.657,0.277-3.924,0.853
	c-21.526,9.773-47.397,2.785-61.516-16.62c-15.32-21.052-12.855-51.353,5.734-70.484l50.952-52.437
	c7.926-8.157,18.791-11.926,29.313-10.837c8.113,0.918,14.877,4.081,20.458,9.111c3.312,3.236,54.124,55.103,57.857,60.23
	C501.585,243.817,500.409,272.688,483.503,291.362z"/>
<g>
</g>
<g>
</g>
<g>
</g>
<g>
</g>
<g>
</g>
<g>
</g>
<g>
</g>
<g>
</g>
<g>
</g>
<g>
</g>
<g>
</g>
<g>
</g>
<g>
</g>
<g>
</g>
<g>
</g>
</svg>
