<?xml version="1.0" encoding="UTF-8"?>
<svg width="300px" height="512px" viewBox="0 0 300 512" version="1.1" xmlns="http://www.w3.org/2000/svg" xmlns:xlink="http://www.w3.org/1999/xlink">
    <!-- Generator: Sketch 55.2 (78181) - https://sketchapp.com -->
    <title>contact</title>
    <desc>Created with Sketch.</desc>
    <g id="Page-1" stroke="none" stroke-width="1" fill="none" fill-rule="evenodd">
        <g id="contact" fill-rule="nonzero">
            <polygon id="Path" fill="#BA6F3C" points="34.136719 75.496094 267.011719 75.496094 267.011719 194.933594 34.136719 194.933594"></polygon>
            <path d="M290.433594,504.5 L7.5,504.5 L7.5,379.476562 C7.5,342.425781 37.53125,312.390625 74.582031,312.390625 L223.351562,312.390625 C260.398438,312.390625 290.433594,342.425781 290.433594,379.476562 L290.433594,504.5 Z" id="Path" fill="#627687"></path>
            <path d="M290.429688,379.476562 L290.429688,504.496094 L267.570312,504.496094 L267.570312,379.476562 C267.570312,342.433594 237.527344,312.390625 200.484375,312.390625 L223.355469,312.390625 C260.398438,312.390625 290.429688,342.433594 290.429688,379.476562 L290.429688,379.476562 Z" id="Path" fill="#455E6D"></path>
            <polygon id="Path" fill="#F8C298" points="7.5 426.242188 62.144531 426.242188 62.144531 504.5 7.5 504.5"></polygon>
            <polygon id="Path" fill="#F8C298" points="235.789062 426.242188 290.429688 426.242188 290.429688 504.5 235.789062 504.5"></polygon>
            <g id="Group" transform="translate(16.000000, 155.000000)" fill="#E39F6E">
                <polygon id="Path" points="251.570312 271.242188 274.429688 271.242188 274.429688 349.5 251.570312 349.5"></polygon>
                <path d="M134.574219,195.164062 C121.945312,195.164062 111.707031,184.925781 111.707031,172.300781 L111.707031,108.15625 L157.4375,108.15625 L157.4375,172.300781 C157.4375,184.925781 147.203125,195.164062 134.574219,195.164062 L134.574219,195.164062 Z" id="Path"></path>
                <path d="M269.035156,30.890625 C269.035156,47.894531 255.253906,61.679688 238.25,61.679688 C221.25,61.679688 207.464844,47.894531 207.464844,30.890625 C207.464844,13.890625 221.25,0.105469 238.25,0.105469 C255.253906,0.105469 269.035156,13.890625 269.035156,30.890625 Z" id="Path"></path>
                <path d="M61.683594,30.890625 C61.683594,47.894531 47.898438,61.679688 30.894531,61.679688 C13.894531,61.679688 0.109375,47.894531 0.109375,30.890625 C0.109375,13.890625 13.894531,0.105469 30.894531,0.105469 C47.898438,0.105469 61.683594,13.890625 61.683594,30.890625 Z" id="Path"></path>
            </g>
            <path d="M150.574219,289.003906 C108.726562,289.003906 73.429688,257.839844 68.242188,216.3125 L60.136719,151.417969 C56.308594,120.773438 80.203125,93.707031 111.085938,93.707031 L190.0625,93.707031 C220.945312,93.707031 244.839844,120.773438 241.011719,151.417969 L232.90625,216.3125 C227.71875,257.839844 192.421875,289.003906 150.574219,289.003906 Z" id="Path" fill="#F8C298"></path>
            <path d="M203.835938,114.460938 L33.898438,114.460938 C27.746094,114.460938 22.757812,109.472656 22.757812,103.320312 L22.757812,91.523438 C22.757812,45.117188 60.375,7.5 106.78125,7.5 L276.71875,7.5 C282.871094,7.5 287.859375,12.488281 287.859375,18.640625 L287.859375,30.4375 C287.859375,76.84375 250.242188,114.460938 203.835938,114.460938 Z" id="Path" fill="#C2C6CC"></path>
            <polygon id="Path" fill="#F1DD47" points="200.722656 439.367188 90.003906 439.367188 100.425781 404.105469 211.144531 404.105469"></polygon>
            <path d="M7.5,471.882812 C3.355469,471.882812 0,475.242188 0,479.382812 L0,504.5 C0,508.640625 3.355469,512 7.5,512 C11.644531,512 15,508.640625 15,504.5 L15,479.382812 C15,475.242188 11.640625,471.882812 7.5,471.882812 Z" id="Path" fill="#000000"></path>
            <path d="M103.5625,171.753906 C99.421875,171.863281 96.160156,175.3125 96.273438,179.453125 L96.40625,184.335938 C96.515625,188.40625 99.851562,191.628906 103.898438,191.628906 C103.96875,191.628906 104.039062,191.628906 104.109375,191.625 C108.25,191.511719 111.511719,188.0625 111.398438,183.921875 L111.265625,179.042969 C111.152344,174.902344 107.691406,171.644531 103.5625,171.753906 Z" id="Path" fill="#000000"></path>
            <path d="M194.160156,191.628906 C194.226562,191.628906 194.300781,191.628906 194.367188,191.625 C198.507812,191.511719 201.773438,188.0625 201.660156,183.921875 L201.527344,179.042969 C201.414062,174.902344 197.960938,171.644531 193.824219,171.75 C189.683594,171.863281 186.417969,175.3125 186.53125,179.453125 L186.664062,184.335938 C186.777344,188.40625 190.113281,191.628906 194.160156,191.628906 Z" id="Path" fill="#000000"></path>
            <path d="M148.96875,234.878906 C162.183594,234.878906 174.710938,228.472656 182.476562,217.75 C184.90625,214.394531 184.15625,209.703125 180.800781,207.273438 C177.445312,204.847656 172.757812,205.597656 170.328125,208.949219 C165.371094,215.792969 157.386719,219.878906 148.96875,219.878906 C140.546875,219.878906 132.558594,215.792969 127.605469,208.949219 C125.175781,205.597656 120.488281,204.847656 117.132812,207.273438 C113.777344,209.703125 113.027344,214.394531 115.457031,217.75 C123.222656,228.476562 135.75,234.878906 148.96875,234.878906 Z" id="Path" fill="#000000"></path>
            <path d="M211.144531,396.605469 L100.425781,396.605469 C97.101562,396.605469 94.175781,398.792969 93.234375,401.980469 L82.8125,437.238281 C82.140625,439.507812 82.578125,441.960938 83.996094,443.855469 C85.410156,445.75 87.640625,446.867188 90.003906,446.867188 L200.722656,446.867188 C204.046875,446.867188 206.972656,444.679688 207.914062,441.492188 L218.339844,406.234375 C219.007812,403.964844 218.570312,401.511719 217.152344,399.617188 C215.738281,397.722656 213.511719,396.605469 211.144531,396.605469 Z M195.117188,431.867188 L100.039062,431.867188 L106.027344,411.605469 L201.105469,411.605469 L195.117188,431.867188 Z" id="Shape" fill="#000000"></path>
            <path d="M254.25,306.660156 L180.9375,304.890625 L180.9375,291.222656 C211.054688,280.441406 234.125,254.101562 239.738281,221.332031 C244.296875,223.203125 249.195312,224.175781 254.25,224.175781 C275.359375,224.175781 292.535156,207.003906 292.535156,185.890625 C292.535156,172.214844 285.324219,160.199219 274.507812,153.425781 L274.507812,88.53125 C287.53125,72.71875 295.359375,52.476562 295.359375,30.4375 L295.359375,18.640625 C295.359375,8.363281 286.996094,0 276.71875,0 L170.863281,0 C166.722656,0 163.363281,3.359375 163.363281,7.5 C163.363281,11.640625 166.722656,15 170.863281,15 L276.71875,15 C278.726562,15 280.359375,16.632812 280.359375,18.640625 L280.359375,30.441406 C280.359375,70.765625 249,103.882812 209.390625,106.738281 C219.253906,100.203125 227.898438,91.726562 234.730469,81.617188 C237.046875,78.183594 236.144531,73.519531 232.710938,71.203125 C229.28125,68.882812 224.617188,69.785156 222.300781,73.21875 C211.613281,89.035156 195.628906,100.082031 177.585938,104.636719 C186.191406,98.417969 193.769531,90.675781 199.894531,81.613281 C202.210938,78.183594 201.308594,73.519531 197.875,71.199219 C194.445312,68.882812 189.78125,69.785156 187.464844,73.21875 C173.1875,94.347656 149.464844,106.960938 124.003906,106.960938 L120.863281,106.960938 C116.722656,106.960938 113.363281,110.320312 113.363281,114.460938 C113.363281,118.601562 116.722656,121.960938 120.863281,121.960938 L203.839844,121.960938 C211.324219,121.960938 218.601562,121.050781 225.574219,119.347656 C232.128906,128.359375 234.96875,139.300781 233.570312,150.488281 L225.464844,215.382812 C220.757812,253.078125 188.558594,281.503906 150.574219,281.503906 C112.585938,281.503906 80.390625,253.078125 75.683594,215.382812 L67.578125,150.488281 C66.328125,140.480469 68.542969,130.453125 73.816406,121.960938 L88.203125,121.960938 C92.347656,121.960938 95.703125,118.601562 95.703125,114.460938 C95.703125,110.316406 92.347656,106.960938 88.203125,106.960938 L33.898438,106.960938 C31.890625,106.960938 30.257812,105.324219 30.257812,103.316406 L30.257812,91.523438 C30.257812,49.328125 64.585938,15 106.78125,15 L138.203125,15 C142.347656,15 145.703125,11.640625 145.703125,7.5 C145.703125,3.359375 142.347656,0 138.203125,0 L106.78125,0 C56.316406,0 15.257812,41.058594 15.257812,91.523438 L15.257812,103.320312 C15.257812,111.023438 19.957031,117.652344 26.636719,120.488281 L26.636719,153.425781 C15.824219,160.199219 8.609375,172.21875 8.609375,185.890625 C8.609375,207.003906 25.785156,224.179688 46.898438,224.179688 C51.953125,224.179688 56.851562,223.203125 61.40625,221.335938 C67.023438,254.101562 90.09375,280.441406 120.210938,291.222656 L120.210938,304.894531 L74.582031,304.894531 C33.457031,304.894531 5.68434189e-14,338.351562 5.68434189e-14,379.476562 L5.68434189e-14,446.269531 C5.68434189e-14,450.410156 3.359375,453.769531 7.5,453.769531 C11.644531,453.769531 15,450.410156 15,446.269531 L15,433.746094 L54.644531,433.746094 L54.644531,504.5 C54.644531,508.640625 58.003906,512 62.144531,512 C66.289062,512 69.644531,508.640625 69.644531,504.5 L69.644531,399.785156 C69.644531,395.640625 66.289062,392.285156 62.144531,392.285156 C58.003906,392.285156 54.644531,395.640625 54.644531,399.785156 L54.644531,418.742188 L15,418.742188 L15,379.472656 C15,346.621094 41.730469,319.890625 74.582031,319.890625 L120.207031,319.890625 L120.207031,327.296875 C120.207031,344.039062 133.828125,357.660156 150.574219,357.660156 C167.316406,357.660156 180.9375,344.039062 180.9375,327.296875 L180.9375,319.890625 L222.984375,319.890625 C222.984375,319.988281 260.667299,319.684135 270.614784,333.82988 C277.746973,343.972156 281.853243,372.276258 282.933594,418.742188 L243.289062,418.742188 L243.289062,399.78125 C243.289062,395.640625 239.929688,392.28125 235.789062,392.28125 C231.644531,392.28125 228.289062,395.640625 228.289062,399.78125 L228.289062,504.5 C228.289062,508.640625 231.644531,512 235.789062,512 C239.929688,512 243.289062,508.640625 243.289062,504.5 L243.289062,433.742188 L282.933594,433.742188 L282.933594,504.5 C282.933594,508.640625 286.289062,512 290.433594,512 C294.574219,512 297.933594,508.640625 297.933594,504.5 L297.933594,406.386719 C301.886719,406.9375 302.246094,306.660156 254.25,306.660156 Z M254.25,209.179688 C249.785156,209.179688 245.519531,207.9375 241.804688,205.578125 L247.03125,163.746094 C249.347656,162.992188 251.765625,162.605469 254.25,162.605469 C267.089844,162.605469 277.535156,173.050781 277.535156,185.890625 C277.535156,198.730469 267.089844,209.179688 254.25,209.179688 Z M259.511719,103.027344 L259.511719,147.976562 C257.789062,147.738281 256.035156,147.605469 254.25,147.605469 C252.417969,147.605469 250.609375,147.746094 248.820312,147.996094 C249.449219,136.058594 246.496094,124.464844 240.289062,114.378906 C247.179688,111.378906 253.625,107.554688 259.511719,103.027344 Z M41.636719,121.960938 L56.960938,121.960938 C53.46875,130.136719 51.871094,139.023438 52.324219,147.996094 C50.535156,147.742188 48.726562,147.605469 46.898438,147.605469 C45.113281,147.605469 43.359375,147.738281 41.636719,147.976562 L41.636719,121.960938 Z M23.609375,185.890625 C23.609375,173.050781 34.054688,162.605469 46.894531,162.605469 C49.375,162.605469 51.796875,163.007812 54.117188,163.765625 L59.339844,205.574219 C55.625,207.933594 51.367188,209.175782 46.894531,209.175782 C34.054688,209.179688 23.609375,198.730469 23.609375,185.890625 Z M150.574219,342.664062 C142.101562,342.664062 135.207031,335.769531 135.207031,327.296875 L135.207031,295.171875 C140.214844,296.035156 145.34375,296.503906 150.574219,296.503906 C155.800781,296.503906 160.933594,296.03125 165.9375,295.171875 L165.9375,327.296875 C165.9375,335.769531 159.046875,342.664062 150.574219,342.664062 Z" id="Shape" fill="#000000"></path>
        </g>
    </g>
</svg>