<?xml version="1.0" encoding="UTF-8"?>
<svg width="289px" height="513px" viewBox="0 0 289 513" version="1.1" xmlns="http://www.w3.org/2000/svg" xmlns:xlink="http://www.w3.org/1999/xlink">
    <!-- Generator: Sketch 55.2 (78181) - https://sketchapp.com -->
    <title>add</title>
    <desc>Created with Sketch.</desc>
    <g id="Page-1" stroke="none" stroke-width="1" fill="none" fill-rule="evenodd">
        <g id="add" fill-rule="nonzero">
            <path d="M280,505.48728 L8.01565558,505.48728 L8.01565558,385.299413 C8.01565558,349.686888 36.8884538,320.81409 72.5009785,320.81409 L215.514677,320.81409 C251.127202,320.81409 280,349.686888 280,385.299413 L280,505.48728 Z" id="Path" fill="#4FCEB7"></path>
            <polygon id="Path" fill="#EBEEF2" points="97.573385 320.81409 193.534247 320.81409 193.534247 505.48728 97.573385 505.48728"></polygon>
            <path d="M279.996086,385.303327 L279.996086,505.483366 L258.023483,505.483366 L258.023483,385.303327 C258.023483,349.690802 229.142857,320.81409 193.534247,320.81409 L215.518591,320.81409 C251.127202,320.81409 279.996086,349.690802 279.996086,385.303327 L279.996086,385.303327 Z" id="Path" fill="#3DB4A0"></path>
            <path d="M145.553816,357.123287 C133.412916,357.123287 123.569472,347.283758 123.569472,335.142857 L123.569472,273.483366 L167.530334,273.483366 L167.530334,335.142857 C167.534246,347.283758 157.690802,357.123287 145.553816,357.123287 Z" id="Path" fill="#E39F6E"></path>
            <path d="M29.2641876,187.499021 L261.83953,187.499021 L267.972603,157.577299 C283.8591,80.0861062 224.657534,7.5146771 145.553816,7.5146771 C66.4461837,7.5146771 7.24461865,80.0861062 23.131116,157.577299 L29.2641876,187.499021 Z" id="Path" fill="#EB5777"></path>
            <path d="M274.810177,199.209393 C274.810177,215.553816 261.561644,228.802349 245.217221,228.802349 C228.872798,228.802349 215.620353,215.553816 215.620353,199.209393 C215.620353,182.86497 228.872798,169.612524 245.217221,169.612524 C261.561644,169.612524 274.810177,182.86497 274.810177,199.209393 Z" id="Path" fill="#E39F6E"></path>
            <path d="M75.4833665,199.209393 C75.4833665,215.553816 62.2309198,228.802349 45.8864971,228.802349 C29.5420744,228.802349 16.2935423,215.553816 16.2935423,199.209393 C16.2935423,182.86497 29.5420744,169.612524 45.8864971,169.612524 C62.2309198,169.612524 75.4833665,182.86497 75.4833665,199.209393 Z" id="Path" fill="#E39F6E"></path>
            <path d="M145.553816,298.328767 C105.322897,298.328767 71.3933461,268.37182 66.4070453,228.454011 L51.6829743,110.590998 L239.420744,110.590998 L224.700587,228.454011 C219.714285,268.37182 185.780822,298.328767 145.553816,298.328767 Z" id="Path" fill="#F8C298"></path>
            <path d="M35.0019572,118.739726 C35.0019572,118.739726 54.8532292,138.426614 108.30137,139.8591 C111.686888,139.949119 114.49315,137.232877 114.49315,133.847359 L114.49315,125.90998 C114.49315,125.90998 133.913895,138.657534 175.076321,139.851272 C178.473581,139.949119 181.287671,137.236791 181.287671,133.83953 L181.287671,129.338552 C181.287671,129.338552 197.303327,139.11546 245.299412,139.890411 C248.661448,139.945205 251.424658,137.240704 251.424658,133.87867 L251.424658,100.528375 L35.0019572,100.528375 L35.0019572,118.739726 Z" id="Path" fill="#EB5777"></path>
            <path d="M280,466.782779 C275.847358,466.782779 272.485323,470.148728 272.485323,474.297456 L272.485323,505.48728 C272.485323,509.636008 275.847358,513.001957 280,513.001957 C284.152642,513.001957 287.514677,509.636008 287.514677,505.48728 L287.514677,474.297456 C287.514677,470.148728 284.152642,466.782779 280,466.782779 L280,466.782779 Z" id="Path" fill="#000000"></path>
            <path d="M101.898239,185.311155 C97.749511,185.424658 94.481409,188.880626 94.590998,193.029354 L94.7201563,197.722114 C94.83366,201.800391 98.1722116,205.029354 102.227006,205.029354 C102.297456,205.029354 102.367906,205.029354 102.438356,205.02544 C106.587084,204.911938 109.8591,201.455969 109.745597,197.311154 L109.616439,192.618396 C109.502935,188.469667 106.046967,185.189824 101.898239,185.311155 Z" id="Path" fill="#000000"></path>
            <path d="M188.998043,205.029354 C189.064579,205.029354 189.135029,205.029354 189.20548,205.02544 C193.354207,204.911938 196.626224,201.455969 196.51272,197.311154 L196.383562,192.618396 C196.270059,188.469667 192.81409,185.189824 188.665362,185.311155 C184.516634,185.424658 181.248532,188.880626 181.362035,193.029354 L181.487279,197.722114 C181.600783,201.800391 184.939335,205.029354 188.998043,205.029354 Z" id="Path" fill="#000000"></path>
            <path d="M178.011741,230.011742 C180.446184,226.649706 179.694716,221.953033 176.332681,219.518591 C172.970645,217.084148 168.273972,217.835616 165.83953,221.197652 C161.135029,227.694716 153.549902,231.573386 145.553816,231.573386 C137.553816,231.573386 129.972603,227.694716 125.264188,221.197652 C122.833659,217.835616 118.133073,217.084148 114.771037,219.518591 C111.409002,221.953033 110.657534,226.649706 113.091977,230.011742 C120.614481,240.399218 132.747554,246.60274 145.549902,246.60274 C158.352251,246.60274 170.489237,240.403131 178.011741,230.011742 Z" id="Path" fill="#000000"></path>
            <path d="M60.5440311,397.307241 C56.3953031,397.307241 53.029354,400.67319 53.029354,404.821918 L53.029354,505.48728 C53.029354,509.636008 56.3953031,513.001957 60.5440311,513.001957 C64.692759,513.001957 68.0587082,509.636008 68.0587082,505.48728 L68.0587082,404.821918 C68.0587082,400.67319 64.692759,397.307241 60.5440311,397.307241 Z" id="Path" fill="#000000"></path>
            <path d="M227.471625,397.307241 C223.318982,397.307241 219.956947,400.67319 219.956947,404.821918 L219.956947,505.48728 C219.956947,509.636008 223.318982,513.001957 227.471625,513.001957 C231.620353,513.001957 234.986302,509.636008 234.986302,505.48728 L234.986302,404.821918 C234.986302,400.67319 231.620353,397.307241 227.471625,397.307241 Z" id="Path" fill="#000000"></path>
            <path d="M175.04501,313.299413 L175.04501,300.677104 C203.882583,290.277887 225.98043,265.072408 231.499022,233.710372 C235.812133,235.428571 240.438356,236.317026 245.217221,236.317026 C265.67906,236.317026 282.324854,219.671233 282.324854,199.209393 C282.324854,189.424658 278.51272,180.516634 272.30137,173.878669 L275.334638,159.088063 C283.53816,119.060665 273.111546,78.195695 246.724071,46.9667319 C244.043053,43.796478 239.303327,43.3972603 236.133072,46.074364 C232.962818,48.7553814 232.563601,53.4951076 235.244618,56.6653625 C258.637964,84.3561641 267.882583,120.587084 260.610567,156.066536 L258.841488,164.7045 C254.618396,163.029355 250.023483,162.101761 245.217221,162.101761 C243.632094,162.101761 242.066536,162.21135 240.520548,162.403132 L242.403132,147.350294 C243.315069,147.369863 244.238748,147.389432 245.174168,147.405089 L245.405088,147.405089 C248.978474,147.405089 252.344422,146.027398 254.900196,143.514677 C257.506849,140.951076 258.939335,137.530333 258.939335,133.87867 L258.939335,118.739726 C258.939335,114.587084 255.577299,111.225048 251.424658,111.225048 C247.272015,111.225048 243.909981,114.587084 243.909981,118.739726 L243.909981,132.348337 C201.729942,131.483365 186.093934,123.401174 185.158513,122.892368 C182.853229,121.424658 180.01957,121.373777 177.612524,122.677104 C175.193737,123.996086 173.772994,126.583171 173.772994,129.338552 L173.772994,132.285715 C136.700587,130.927593 118.755382,119.7182 118.614481,119.62818 C116.305284,118.113502 113.350293,117.984344 110.919765,119.299413 C108.489237,120.610568 106.97456,123.146771 106.97456,125.90998 L106.97456,132.297455 C76.7984349,131.279844 58.2700587,124.320939 47.9921727,118.610567 C44.3679061,116.594912 39.7925639,117.898239 37.7729944,121.526418 C35.7573386,125.154599 37.0645798,129.729941 40.692759,131.745597 C42.5988258,132.806262 44.7514672,133.902153 47.1585125,135.001957 L50.5792566,162.403132 C49.0332681,162.207436 47.4677104,162.097847 45.8864971,162.097847 C41.0763212,162.097847 36.4814088,163.029355 32.2622312,164.700587 L30.4931509,156.066536 C23.3737769,121.350293 32.1409002,85.6947165 54.5401177,58.2348339 C76.9432488,30.778865 110.113503,15.0293542 145.553816,15.0293542 C169.686889,15.0293542 192.829746,22.2544036 212.473581,35.9256363 C215.878669,38.2935421 220.5636,37.4559682 222.931507,34.046967 C225.303327,30.6418784 224.46184,25.9569472 221.056751,23.5851267 C198.880627,8.15655577 172.774951,1.13686838e-13 145.553816,1.13686838e-13 C105.581213,1.13686838e-13 68.1643836,17.7651666 42.8962818,48.7358121 C17.6320937,79.7103723 7.74168247,119.929549 15.76908,159.088063 L18.8023483,173.878669 C12.5909978,180.516634 8.77886522,189.424658 8.77886522,199.209393 C8.77886522,219.671233 25.4246575,236.317026 45.8864971,236.317026 C50.6614481,236.317026 55.2876717,235.424658 59.6046964,233.706458 C65.1193743,265.068493 87.2211348,290.273972 116.058708,300.677104 L116.058708,313.299413 L72.5009785,313.299413 C32.8023481,313.299413 0.500978474,345.600783 0.500978474,385.299413 L0.500978474,505.48728 C0.500978474,509.636008 3.86692759,513.001957 8.01565558,513.001957 C12.1643836,513.001957 15.5303327,509.636008 15.5303327,505.48728 L15.5303327,385.299413 C15.5303327,353.886497 41.0880621,328.328767 72.5009785,328.328767 L90.0587079,328.328767 L90.0587079,505.48728 C90.0587079,509.636008 93.4207434,513.001957 97.573385,513.001957 C101.722114,513.001957 105.088062,509.636008 105.088062,505.48728 L105.088062,328.328767 L116.058708,328.328767 L116.058708,335.142857 C116.058708,351.409002 129.291585,364.637965 145.553816,364.637965 C161.819961,364.637965 175.048923,351.409002 175.048923,335.142857 L175.048923,328.328767 L186.019569,328.328767 L186.019569,505.48728 C186.019569,509.636008 189.385519,513.001957 193.534247,513.001957 C197.686888,513.001957 201.048924,509.636008 201.048924,505.48728 L201.048924,328.328767 L210.101761,328.328767 C210.101761,328.645792 238.187454,326.415706 251.424658,341.711368 C254.781442,345.590151 268.370533,360.311265 270.562916,374.190809 C272.22585,384.718514 272.866652,406.881917 272.485323,440.681017 C272.485323,444.83366 275.851272,448.195694 280,448.195694 C284.152642,448.195694 287.514677,444.83366 287.514677,440.681017 C291.13287,391.849481 285.482283,356.670094 270.562916,335.142857 C261.319827,321.805953 229.480525,314.524805 175.04501,313.299413 Z M245.217221,177.131115 C257.393346,177.131115 267.2955,187.037182 267.2955,199.209393 C267.2955,211.385518 257.393346,221.291585 245.217221,221.291585 C241.037182,221.291585 237.064579,220.136986 233.585127,217.964774 L238.555773,178.156556 C240.692759,177.479452 242.923679,177.131115 245.217221,177.131115 Z M23.8082194,199.209393 C23.8082194,187.033268 33.7142862,177.127202 45.8864971,177.127202 C48.176125,177.127202 50.4070453,177.479452 52.5479447,178.156556 L57.5225046,217.964774 C54.0391392,220.136986 50.0626226,221.287671 45.8864971,221.287671 C33.7103716,221.287671 23.8082194,211.385518 23.8082194,199.209393 Z M73.8630137,227.522505 L63.0371815,140.849315 C74.6027395,144.223092 89.4324848,146.868884 108.082192,147.369863 C111.788649,147.471625 115.275929,146.105675 117.921722,143.530333 C119.639922,141.855186 120.853229,139.812133 121.491193,137.569471 C131.83953,141.636008 149.487279,146.630137 174.861057,147.362035 C178.551859,147.475538 182.054795,146.109589 184.704501,143.534246 C185.808219,142.46184 186.704501,141.236791 187.377691,139.906066 C195.142857,142.379647 207.886497,145.27593 227.342466,146.653621 L217.244618,227.522505 C212.735812,263.604697 181.917808,290.81409 145.553816,290.81409 C109.189823,290.81409 78.3679063,263.604697 73.8630137,227.522505 L73.8630137,227.522505 Z M145.553816,349.60861 C137.5773,349.60861 131.084149,343.119374 131.084149,335.142857 L131.084149,304.618396 C135.800391,305.409002 140.630137,305.843444 145.553816,305.843444 C150.473582,305.843444 155.299413,305.409002 160.019569,304.618396 L160.019569,335.142857 C160.019569,343.119374 153.530333,349.60861 145.553816,349.60861 Z" id="Shape" fill="#000000"></path>
        </g>
    </g>
</svg>