<?xml version="1.0" encoding="iso-8859-1"?>
<!-- Generator: Adobe Illustrator 19.0.0, SVG Export Plug-In . SVG Version: 6.00 Build 0)  -->
<svg version="1.1" id="Capa_1" xmlns="http://www.w3.org/2000/svg" xmlns:xlink="http://www.w3.org/1999/xlink" x="0px" y="0px"
	 viewBox="0 0 512 512" style="enable-background:new 0 0 512 512;" xml:space="preserve">
<path style="fill:#5C87BD;" d="M105.5,444.5v-407c0-16.569,13.431-30,30-30h210c16.569,0,30,13.431,30,30v407
	c0,16.569-13.431,30-30,30h-210C118.931,474.5,105.5,461.069,105.5,444.5z"/>
<path style="fill:#FFF9EB;" d="M135.5,474.5v-407c0-16.569,13.431-30,30-30h210c16.569,0,30,13.431,30,30v407
	c0,16.569-13.431,30-30,30h-210C148.931,504.5,135.5,491.069,135.5,474.5z"/>
<path style="fill:#D3CDBF;" d="M165.5,504.5h210c16.569,0,30-13.431,30-30v-407c0-11.102-6.036-20.789-15-25.977
	c-8.964,5.188-15,14.875-15,25.977v407h-210c-11.102,0-20.789,6.036-25.977,15C144.711,498.464,154.398,504.5,165.5,504.5z"/>
<path style="fill:#FF5368;" d="M355.109,204.529c-22.804-25.492-61.152-26.027-84.609-1.605
	c-23.456-24.422-61.805-23.887-84.609,1.605c-21.721,24.282-20.053,62.511,2.483,85.975l50.955,53.053
	c17.215,17.924,45.126,17.924,62.341,0l50.955-53.053C375.161,267.04,376.83,228.811,355.109,204.529z"/>
<path style="fill:#C5324F;" d="M355.109,204.529c-5.148-5.754-11.092-10.225-17.473-13.436c11.941,23.511,7.726,53.57-11.173,73.248
	l-50.955,53.053c-15.291,15.92-39.013,17.687-56.19,5.326l20.013,20.837c17.215,17.924,45.126,17.924,62.341,0l50.955-53.053
	C375.161,267.04,376.83,228.811,355.109,204.529z"/>
<path d="M376,30H166c-20.678,0-37.5,16.822-37.5,37.5v398.201c-8.718-3.109-14.984-11.447-15-21.201v-407
	c0.02-12.391,10.11-22.48,22.5-22.5h210c4.33,0,8.53,1.229,12.16,3.56c1.21,0.79,2.62,1.2,4.05,1.2c2.57,0,4.93-1.29,6.31-3.44
	c2.24-3.479,1.24-8.13-2.239-10.369C360.24,2.06,353.229,0,346.02,0H136c-10.02,0-19.44,3.899-26.52,10.979S98.5,27.479,98.5,37.5
	v407c0,10.02,3.9,19.439,10.98,26.52c5.435,5.435,12.248,8.995,19.653,10.357C132.371,498.781,147.671,512,166,512h210
	c20.678,0,37.5-16.822,37.5-37.5v-407C413.5,46.822,396.678,30,376,30z M398.5,474.5c0,12.406-10.094,22.5-22.5,22.5H166
	c-12.407,0-22.5-10.094-22.5-22.5v-407c0-12.406,10.093-22.5,22.5-22.5h210c12.406,0,22.5,10.094,22.5,22.5V474.5z"/>
<path d="M165.44,129.238c4.197,2.735,9.551,0.8,11.203-3.604L177.63,123h17.73l0.988,2.633c1.129,3.011,3.987,4.869,7.023,4.869
	c1.58,0,3.209-0.503,4.663-1.607c2.62-1.988,3.47-5.563,2.316-8.642l-16.833-44.887c-1.377-3.671-5.429-5.789-9.448-4.475
	c-2.177,0.711-3.849,2.479-4.653,4.623l-16.764,44.705C161.419,123.508,162.497,127.32,165.44,129.238z M186.495,99.36l3.24,8.64
	h-6.48L186.495,99.36z"/>
<path d="M361.603,416.566c-0.816-2.177-2.509-3.984-4.724-4.692c-4.002-1.279-8.025,0.836-9.396,4.492l-16.776,44.735
	c-1.347,3.591,0.029,7.771,3.432,9.538c4.078,2.118,8.951,0.16,10.513-4.007L345.64,464h17.73l0.987,2.633
	c1.129,3.011,3.987,4.869,7.023,4.869c1.362,0,2.76-0.374,4.052-1.184c3.039-1.906,4.145-5.82,2.885-9.178L361.603,416.566z
	 M351.265,449l3.24-8.64l3.24,8.64H351.265z"/>
<path d="M372.97,271.89c3.34-8.52,5.03-17.49,5.03-26.66c0.01-17.26-6.141-33.64-17.3-46.13c-6.381-7.13-13.96-12.68-22.53-16.49
	c-8.28-3.68-17.04-5.54-26.05-5.54h-0.11c-8.57,0-16.94,1.69-24.88,5.03c-8.19,3.44-15.54,8.48-21.82,14.98l-0.05,0.04
	c-0.64,0.569-1.46,0.88-2.32,0.88H262c-4.141,0-7.5,3.359-7.5,7.5c0,4.14,3.359,7.5,7.5,7.5h0.939c4.53,0,8.88-1.65,12.271-4.66
	l0.189-0.16c0.101-0.09,0.2-0.18,0.29-0.27l0.301-0.301c9.67-10.01,22.47-15.529,36.069-15.54c14.33,0.011,27.63,6.061,37.46,17.03
	c8.681,9.72,13.471,22.55,13.48,36.13c0,14.78-5.75,29.24-15.79,39.681l-53.351,55.569c-6.229,6.471-14.52,10.04-23.359,10.061
	c-8.84-0.021-17.14-3.59-23.36-10.061l-53.36-55.569c-10.03-10.44-15.79-24.9-15.78-39.681c0.01-13.58,4.79-26.41,13.48-36.13
	c9.82-10.97,23.13-17.02,37.46-17.03c4.79,0,9.55,0.7,14.14,2.07c0.7,0.21,1.43,0.32,2.15,0.32c3.29,0,6.24-2.2,7.19-5.351
	c0.57-1.92,0.36-3.949-0.59-5.71c-0.95-1.77-2.53-3.05-4.45-3.63c-5.98-1.79-12.19-2.7-18.44-2.7h-0.06
	c-9.01,0-17.77,1.86-26.06,5.54c-8.57,3.811-16.14,9.36-22.52,16.49c-11.16,12.49-17.31,28.87-17.3,46.13
	c0,9.17,1.69,18.141,5.03,26.66c3.44,8.79,8.46,16.66,14.93,23.41l53.36,55.57c4.56,4.76,9.92,8.449,15.92,10.979
	c5.81,2.44,11.94,3.69,18.21,3.681h0.1c6.27,0,12.4-1.24,18.21-3.681c6-2.53,11.36-6.22,15.92-10.979l53.36-55.57
	C364.51,288.55,369.53,280.68,372.97,271.89z"/>
<g>
</g>
<g>
</g>
<g>
</g>
<g>
</g>
<g>
</g>
<g>
</g>
<g>
</g>
<g>
</g>
<g>
</g>
<g>
</g>
<g>
</g>
<g>
</g>
<g>
</g>
<g>
</g>
<g>
</g>
</svg>
