<?xml version="1.0" encoding="iso-8859-1"?>
<!-- Generator: Adobe Illustrator 19.0.0, SVG Export Plug-In . SVG Version: 6.00 Build 0)  -->
<svg version="1.1" id="Capa_1" xmlns="http://www.w3.org/2000/svg" xmlns:xlink="http://www.w3.org/1999/xlink" x="0px" y="0px"
	 viewBox="0 0 512 512" style="enable-background:new 0 0 512 512;" xml:space="preserve">
<path style="fill:#FFC98C;" d="M477.302,305.326c20.376-37.46,27.198-72.759,27.198-111.614
	c0.001-15.766-12.163-28.682-27.618-29.897c-8.218-0.646-15.853,2.054-21.645,6.909L292.821,285.681
	c-20.505,20.505-35.492,46.23-36.86,73.295c-0.292-28.376-16.643-51.979-37.958-73.295L56.748,170.702
	c-5.788-4.845-13.634-7.513-21.842-6.867C19.68,165.276,7.499,178.109,7.5,193.712c0,38.855,6.823,74.154,27.198,111.614
	c-17.892,9.103-21.906,33.385-7.452,47.839l43.628,43.628c15.414,15.414,33.703,25.642,52.025,31.399
	c2.868,0.901,5.673,1.962,8.415,3.158v73.15c14.527,0,112.554,0,124.682,0c14.527,0,112.73,0,124.857,0v-73.24
	c13.035-4.982,36.653-10.848,60.272-34.467c46.826-46.826,47.326-46.118,50.361-53.899
	C496.927,328.958,491.288,312.442,477.302,305.326z"/>
<g>
	<path style="fill:#CE795F;" d="M69.673,310.738c-10.597-10.597-27.233-11.645-39.014-2.923c0.001,0,0.003,0,0,0
		c-0.181,0.134-1.223,0.948-1.108,0.86c-3.247,2.666-5.884,5.799-7.856,9.728c4.702,7.221,12.214,12.023,20.664,13.271
		c4.41,0.652,8.502,2.678,11.655,5.831l27.464,27.464c6.897,6.897,16.114,15.712,26.286,5.541
		c3.326-3.326,6.342-6.341,10.841-10.841l-10.607-10.607L69.673,310.738z"/>
	<path style="fill:#CE795F;" d="M477.485,304.982c20.231-37.332,27.015-72.534,27.015-111.271
		c0.001-11.1-6.033-20.779-14.994-25.966c-9.228,5.305-15.006,15.097-15.007,25.967c0.001,49.162-12.863,75.557-20.55,91.326
		c-3.493,7.168-6.017,12.347-6.494,17.484c-0.117,1.263,0.099,2.509,0.584,3.64C456.988,300.621,468.212,300.231,477.485,304.982z"
		/>
	<path style="fill:#CE795F;" d="M255.999,361.097c0.048-24.056-10.613-43.958-24.659-61.43h-40.583
		c18.298,18.391,34.308,36.61,35.178,59.408l0.004,3.662c0.008-0.235,0.007-0.468,0.012-0.703C226.005,382.65,226,503.579,226,504.5
		h30c0-89.829,0.016-56.854-0.069-143.379L255.999,361.097z"/>
	<path style="fill:#CE795F;" d="M466.861,325.748c-4.082,5.871-8.489,11.506-13.545,16.563c-2.976,2.978-6.437,6.416-10.254,10.208
		c-6.094,6.055-13.677,13.588-23.15,23.062c-14.401,14.401-26.285,19.217-47.99,27.202c-12.653,4.654-21.069,16.703-21.069,30.185
		V504.5h30v-73.24c13.035-4.982,36.653-10.848,60.272-34.467c46.826-46.826,47.326-46.118,50.361-53.899
		c3.92-10.042,2.086-21.423-4.477-29.662C478.981,314.452,471.62,318.904,466.861,325.748z"/>
</g>
<path style="fill:#FFF9EB;" d="M452.226,68.33l-98.477-26.387c-2.46-0.659-4.931-0.985-7.364-1.007v-4.027
	c0-16.242-13.167-29.409-29.409-29.409H195.024c-16.242,0-29.409,13.167-29.409,29.409v4.027c-2.434,0.022-4.904,0.348-7.364,1.007
	L59.774,68.33c-15.689,4.204-24.999,20.33-20.795,36.019L92.26,303.195c4.204,15.688,20.33,24.999,36.018,20.795l54.33-14.558l0,0
	c3.773,1.76,7.978,2.749,12.416,2.749h121.952c4.438,0,8.643-0.989,12.416-2.749l54.33,14.558
	c15.689,4.204,31.815-5.107,36.018-20.795l53.281-198.847C477.225,88.659,467.915,72.534,452.226,68.33z"/>
<path style="fill:#6C7A88;" d="M404.971,162.555c-5.956-11.448-18.141-17.183-29.991-15.464l5.525-6.208
	c3.704-4.162,1.727-10.767-3.655-12.208l-12.174-3.262c-5.381-1.442-10.396,3.29-9.269,8.746l1.699,8.225
	c-6.748-5.396-15.601-7.505-24.106-5.708v78.802c6.58,8.852,18.819,11.497,28.589,5.746l31.315-18.433
	C406.754,194.638,412.393,176.82,404.971,162.555z"/>
<path style="fill:#4D5967;" d="M404.971,162.554c-3.492-6.712-9.129-11.456-15.582-13.892c-1.393,8.93-6.728,17.225-14.985,22.085
	l-31.315,18.433c-3.195,1.881-6.652,2.842-10.089,3.001v23.296c6.58,8.852,18.819,11.497,28.589,5.746l31.315-18.433
	C406.754,194.638,412.393,176.82,404.971,162.554z"/>
<path style="fill:#C5324F;" d="M145.015,147.442c-5.32-3.97-12.95-1.926-15.573,4.173l-22.045,51.27
	c-1.878,4.368-0.515,9.455,3.295,12.298l44.727,33.378c2.903,2.167,6.491,2.531,9.581,1.434v-87.638L145.015,147.442z"/>
<g>
	<path style="fill:#D3CDBF;" d="M464.923,75.462c-9.855,2.772-18.038,10.516-20.88,21.121l-53.127,198.276
		c-28.328-7.59-36.849-9.873-44.535-11.933c0.006-1.227,0.004-244.842,0.004-246.018c0-11.127-6.182-20.81-15.297-25.805
		c-8.801,5.229-14.703,14.826-14.703,25.806v237.98l0,0v7.293c-4.99,0-113.439,0-118.361,0c-10.976,0-20.57,5.897-25.8,14.694
		c0.095,0.173,0.092,0.186-0.006,0.009c0.002-0.003,0.004-0.006,0.006-0.009c-2.272-4.146-3.579-8.895-3.605-13.95l-45.105,12.086
		c-10.606,2.842-18.349,11.026-21.121,20.881c7.184,7.512,18.137,10.977,28.885,8.097l54.33-14.558
		c-1.77-0.827,4.561,2.749,12.416,2.749c132.058,0,125.765,0.852,133.224-2.252l52.474,14.061
		c15.689,4.204,31.815-5.107,36.018-20.795l53.281-198.847C475.901,93.599,472.436,82.646,464.923,75.462z"/>
	<path style="fill:#D3CDBF;" d="M170.678,299.243c0.26,0.383,0.522,0.765,0.799,1.135
		C171.2,300.008,170.938,299.626,170.678,299.243z"/>
	<path style="fill:#D3CDBF;" d="M169.567,297.475c0.246,0.425,0.495,0.848,0.762,1.259
		C170.063,298.323,169.813,297.899,169.567,297.475z"/>
	<path style="fill:#D3CDBF;" d="M179.269,307.592c0.4,0.254,0.806,0.498,1.219,0.733
		C180.075,308.09,179.668,307.846,179.269,307.592z"/>
	<path style="fill:#D3CDBF;" d="M169.294,297.012c-0.025-0.044-0.045-0.091-0.07-0.136c-0.002,0.003-0.004,0.006-0.006,0.009
		C169.242,296.928,169.27,296.969,169.294,297.012z"/>
	<path style="fill:#D3CDBF;" d="M174.095,303.416c-0.315-0.32-0.619-0.65-0.92-0.984
		C173.475,302.766,173.779,303.096,174.095,303.416z"/>
	<path style="fill:#D3CDBF;" d="M177.617,306.459c0.374,0.275,0.753,0.541,1.14,0.799
		C178.37,307.001,177.99,306.734,177.617,306.459z"/>
	<path style="fill:#D3CDBF;" d="M182.298,309.275c-0.438-0.211-0.871-0.43-1.296-0.662
		C181.427,308.845,181.86,309.064,182.298,309.275z"/>
	<path style="fill:#D3CDBF;" d="M176.046,305.218c0.349,0.295,0.702,0.583,1.064,0.862
		C176.749,305.801,176.395,305.513,176.046,305.218z"/>
	<path style="fill:#D3CDBF;" d="M174.566,303.876c0.324,0.314,0.652,0.623,0.991,0.922C175.218,304.5,174.89,304.19,174.566,303.876
		z"/>
	<path style="fill:#D3CDBF;" d="M171.879,300.89c0.279,0.356,0.561,0.709,0.856,1.052
		C172.44,301.599,172.158,301.246,171.879,300.89z"/>
</g>
<path style="fill:#FF5368;" d="M298.304,128.537c-11.402-12.45-30.576-12.711-42.304-0.784
	c-11.728-11.927-30.902-11.666-42.304,0.784c-10.861,11.859-10.026,30.529,1.242,41.988l25.478,25.91
	c8.607,8.753,22.563,8.753,31.17,0l25.478-25.91C308.331,159.066,309.165,140.396,298.304,128.537z"/>
<path style="fill:#C5324F;" d="M298.304,128.537c-5.111-5.58-11.783-8.703-18.646-9.386c0.966,8.986-2.041,18.38-8.758,25.211
	l-25.478,25.91c-7.756,7.887-19.841,8.643-28.456,2.316l23.449,23.847c8.607,8.753,22.563,8.753,31.17,0l25.478-25.91
	C308.331,159.066,309.165,140.396,298.304,128.537z"/>
<path d="M489.31,304.663c-0.704-0.667-1.43-1.305-2.176-1.911C504.298,269.06,512,235.117,512,193.712
	c0.001-19.436-15.166-35.853-34.529-37.374c-0.003,0-0.007,0-0.01,0c-3.664-0.29-7.291-0.047-10.79,0.695l13.599-50.742
	c0.83-3.12,1.261-6.34,1.261-9.57c0-7.979-2.66-15.89-7.5-22.28c-4.99-6.58-11.86-11.199-19.87-13.359L355.689,34.7
	c-0.63-0.169-1.264-0.321-1.901-0.457C352.419,15.131,336.431,0,316.976,0H195.024c-20.352,0-36.909,16.557-36.909,36.908v110.951
	l-8.615-6.429c-4.388-3.273-9.938-4.338-15.225-2.922c-5.287,1.417-9.56,5.115-11.723,10.145l-22.045,51.27
	c-3.262,7.586-0.918,16.332,5.699,21.271l44.727,33.379c2.154,1.607,4.615,2.673,7.182,3.176v25.026
	c0,8.596,3.032,16.775,8.271,23.244L126.34,316.75c-1.87,0.489-3.78,0.75-5.69,0.75c-9.9-0.011-18.6-6.69-21.15-16.25L46.22,102.41
	c-0.5-1.87-0.75-3.79-0.75-5.69c0-9.9,6.68-18.6,16.24-21.14l76.7-20.561c1.94-0.52,3.55-1.76,4.56-3.49
	c1-1.739,1.26-3.76,0.75-5.689c-0.88-3.271-3.86-5.561-7.24-5.561c-0.65,0-1.3,0.08-1.93,0.25c-0.01,0-0.01,0-0.02,0L57.83,61.09
	c-8.01,2.15-14.88,6.77-19.86,13.35c-4.84,6.391-7.5,14.301-7.5,22.28c0,3.22,0.43,6.44,1.27,9.57l13.592,50.735
	c-3.695-0.783-7.531-1.007-11.409-0.64c-0.108,0.01-0.215,0.023-0.321,0.038C14.684,158.387-0.001,174.588,0,193.712
	c0,41.405,7.703,75.348,24.867,109.039c-0.726,0.59-1.433,1.21-2.12,1.858c-10.956,10.199-14.956,26.318-9.221,41.01
	c2.999,7.688,3.975,8.657,28.977,33.497c6.073,6.033,13.628,13.54,23.069,22.98c21.566,21.565,42.958,29.097,57.113,34.081
	c0.324,0.114,0.645,0.227,0.962,0.339V504.5c0,4.143,3.358,7.5,7.5,7.5s7.5-3.357,7.5-7.5v-73.24c0-3.109-1.918-5.896-4.823-7.006
	c-1.891-0.723-3.964-1.452-6.158-2.225c-12.875-4.533-32.332-11.384-51.488-30.54c-9.454-9.454-17.021-16.972-23.103-23.015
	c-23.728-23.573-23.797-23.751-25.575-28.309c-4.157-10.649,0.499-23.017,10.6-28.156c0.039-0.02,0.077-0.04,0.115-0.061
	c0.023-0.012,0.045-0.023,0.068-0.035c0.159-0.086,0.313-0.178,0.463-0.274c0.007-0.004,0.015-0.009,0.023-0.014
	c0.045-0.029,0.089-0.058,0.133-0.088c0.008-0.006,0.017-0.011,0.025-0.017c0.014-0.01,0.029-0.02,0.043-0.03
	c2.839-1.322,5.95-2.039,9.18-2.083c6.119-0.051,11.889,2.256,16.221,6.588l41.713,41.713c0.221,0.449,0.49,0.881,0.812,1.287
	c1.733,2.19,4.356,3.127,6.851,2.811c1.769-0.104,3.508-0.832,4.859-2.183c0.489-0.489,0.896-1.029,1.221-1.602
	c20.575-18.806,52.617-18.257,72.522,1.647c8.004,8.003,17.811-3.403,11.043-10.17c-25.537-25.537-64.043-26.177-89.991-5.688
	l-38.423-38.423c-7.221-7.22-16.794-11.139-27.034-10.979c-3.354,0.046-6.631,0.526-9.768,1.415
	C22.179,264.36,15,232.566,15,193.712c0-11.66,9.094-21.508,20.706-22.421c0.077-0.006,0.153-0.014,0.23-0.022
	c5.111-0.357,10.078,0.999,14.245,3.854L85.01,305.13c2.16,8.01,6.78,14.88,13.36,19.87c6.39,4.83,14.3,7.5,22.27,7.5h0.01
	c3.21,0,6.43-0.431,9.56-1.261l51.87-13.898c4.133,1.554,8.474,2.34,12.944,2.34h41.318c7.883,13.554,11.948,27.32,12.088,40.914
	l0.07,70.664v73.24c0,4.143,3.358,7.5,7.5,7.5c4.143,0,7.5-3.357,7.5-7.5v-73.248l-0.069-69.224
	c0.086-0.441,0.133-0.897,0.138-1.363c0.141-13.659,4.206-27.43,12.089-40.983h41.317c5.433,0,10.677-1.161,15.588-3.451
	c9.95-4.643,17.195-13.469,20.019-23.786c2.928,0.775,6.157-0.281,8.022-2.89l1.635-2.288l17.126,4.589l0.272,2.799
	c0.311,3.201,2.591,5.735,5.524,6.521c0.845,0.226,1.745,0.308,2.667,0.218c4.123-0.401,7.14-4.068,6.739-8.191l-4.653-47.834
	c-0.303-3.111-2.504-5.709-5.524-6.518c-3.02-0.81-6.225,0.34-8.043,2.883l-22.464,31.428v-41.596
	c4.025-0.474,7.947-1.782,11.509-3.878l31.315-18.433c17.605-10.363,24.157-32.396,14.915-50.16
	c-4.766-9.162-13.013-15.68-22.498-18.396c0.978-2.888,1.055-6.047,0.144-9.09c-1.502-5.018-5.418-8.823-10.478-10.179
	l-12.174-3.262c-4.002-1.074-8.114,1.302-9.186,5.303s1.302,8.114,5.303,9.186l12.168,3.24l-5.525,6.207
	c-2.096,2.354-2.496,5.766-1.003,8.541c1.493,2.774,4.569,4.319,7.681,3.867c9.054-1.317,17.999,3.311,22.262,11.505
	c5.465,10.505,1.33,24.103-9.218,30.311l-31.316,18.433c-1.229,0.724-2.542,1.256-3.898,1.59V49.746L450.28,75.58
	c9.56,2.54,16.239,11.229,16.25,21.14c0,1.92-0.261,3.84-0.75,5.69l-17.733,66.177c-0.038,0.128-0.073,0.258-0.104,0.388
	L412.5,301.25c-2.55,9.56-11.25,16.239-21.15,16.25c-1.91,0-3.83-0.261-5.689-0.75l-25.351-6.8c-0.64-0.171-1.29-0.25-1.95-0.25
	c-3.38,0-6.359,2.279-7.229,5.56c-0.521,1.93-0.26,3.95,0.75,5.69c1,1.729,2.61,2.97,4.55,3.489l25.351,6.79
	c3.13,0.84,6.35,1.271,9.579,1.271c7.971,0,15.881-2.67,22.271-7.5c6.58-4.99,11.2-11.86,13.35-19.86l34.841-130.007
	c4.224-2.892,9.282-4.247,14.471-3.842c0.001,0,0.002,0,0.004,0c11.611,0.913,20.706,10.761,20.705,22.421
	c0,38.854-7.179,70.647-23.174,102.113c-3.137-0.888-6.414-1.369-9.767-1.415c-0.179-0.003-0.355-0.004-0.533-0.004
	c-10.013,0-19.406,3.889-26.502,10.982l-38.675,38.675c-27.391-21.753-65.806-18.873-89.676,4.871
	c-2.705,2.689-3.096,7.07-0.729,10.061c2.84,3.588,8.068,3.813,11.207,0.674c20.469-20.47,53.777-20.47,74.246,0
	c5.137,5.137,11.017,2.278,12.781-2.219l41.454-41.455c4.333-4.332,10.108-6.63,16.222-6.588c3.229,0.044,6.338,0.761,9.175,2.081
	c0.22,0.152,0.451,0.295,0.691,0.426c0.077,0.042,0.155,0.082,0.233,0.121c10.066,5.154,14.699,17.498,10.548,28.132
	c-1.777,4.556-1.847,4.733-25.58,28.313c-6.081,6.042-13.646,13.558-23.098,23.009c-19.153,19.154-38.609,26.005-51.483,30.538
	c-2.195,0.773-4.27,1.504-6.162,2.227c-2.904,1.11-4.822,3.896-4.822,7.006v73.24c0,4.143,3.357,7.5,7.5,7.5s7.5-3.357,7.5-7.5
	v-67.983c0.319-0.113,0.642-0.227,0.967-0.341c14.154-4.984,35.545-12.516,57.108-34.079c9.437-9.438,16.991-16.942,23.063-22.975
	c25.007-24.845,25.983-25.814,28.981-33.501C504.199,330.954,500.223,314.864,489.31,304.663z M376.922,266.727l0.893,9.184
	l-6.259-1.677L376.922,266.727z M115.178,209.171c-1.034-0.771-1.4-2.139-0.89-3.323l22.045-51.27
	c0.461-1.074,1.342-1.452,1.826-1.581c0.482-0.13,1.435-0.244,2.371,0.455l17.585,13.124v74.639L115.178,209.171z M256,325.548
	c-0.819-1.96-1.704-3.917-2.657-5.867h5.313C257.704,321.632,256.819,323.588,256,325.548z M326.353,302.575
	c-0.089,0.04-0.177,0.081-0.265,0.124c-2.871,1.315-5.936,1.983-9.112,1.983H195.024c-3.21,0-6.306-0.682-9.201-2.025
	c-0.033-0.016-0.066-0.032-0.099-0.047c-7.661-3.602-12.608-11.38-12.608-19.836V249.91c0.002-0.102,0.002-0.204,0-0.306v-86.746
	c0-0.028,0-0.056,0-0.083V41.172c0.003-0.1,0.005-0.201,0.004-0.302c-0.001-0.065-0.002-0.13-0.004-0.194v-3.768
	c0-12.08,9.828-21.908,21.909-21.908h121.952c12.081,0,21.909,9.828,21.909,21.908v186.863c-0.001,0.078-0.001,0.156,0,0.234v58.769
	C338.885,291.202,333.97,298.959,326.353,302.575z"/>
<path d="M202.145,84.967l0.988-2.633h17.73l0.987,2.633c1.129,3.012,3.987,4.869,7.023,4.869c0.875,0,1.765-0.154,2.632-0.479
	c3.878-1.455,5.844-5.777,4.389-9.656l-16.875-45c-1.098-2.927-3.896-4.866-7.022-4.866s-5.925,1.939-7.022,4.866l-16.875,45
	c-1.455,3.879,0.511,8.201,4.389,9.656C196.366,90.809,200.691,88.845,202.145,84.967z M211.997,58.693l3.24,8.641h-6.48
	L211.997,58.693z"/>
<path d="M307.025,234.713c-1.098-2.927-3.896-4.867-7.022-4.867s-5.925,1.939-7.022,4.867l-16.875,45
	c-1.455,3.878,0.511,8.201,4.389,9.656c3.879,1.454,8.202-0.511,9.656-4.389l0.987-2.633h17.73l0.988,2.633
	c1.129,3.011,3.987,4.869,7.023,4.869c0.875,0,1.765-0.154,2.632-0.479c3.878-1.455,5.844-5.777,4.389-9.656L307.025,234.713z
	 M296.763,267.347l3.24-8.64l3.24,8.64H296.763z"/>
<path d="M276.995,203.499l25.478-26.536c14.225-14.814,14.85-38.18,1.423-53.195c-6.911-7.727-16.314-12.082-26.479-12.262
	c-7.745-0.142-15.166,2.171-21.416,6.597c-6.25-4.426-13.664-6.757-21.416-6.597c-10.165,0.18-19.568,4.535-26.479,12.262
	c-13.427,15.015-12.803,38.381,1.421,53.195l25.479,26.536c5.573,5.805,13.029,9.001,20.995,9.001
	C263.966,212.5,271.422,209.303,276.995,203.499z M256,197.5c-3.844,0-7.458-1.56-10.175-4.39l-25.478-26.536
	c-8.679-9.039-9.155-23.757-1.061-32.808c4.094-4.578,9.622-7.158,15.563-7.264c0.127-0.002,0.252-0.003,0.378-0.003
	c3.191,0,6.278,0.717,9.098,2.081c-0.034,0.29-0.052,0.585-0.052,0.884c0,4.143,3.358,7.5,7.5,7.5h0.277
	c3.265,0,6.41-1.185,8.867-3.337c0.094-0.082,0.186-0.166,0.276-0.253c0.083-0.08,0.165-0.162,0.243-0.245
	c4.219-4.378,9.761-6.73,15.713-6.627c5.941,0.105,11.469,2.686,15.563,7.264c8.094,9.052,7.618,23.769-1.062,32.808l-25.478,26.536
	C263.457,195.94,259.844,197.5,256,197.5z"/>
<path d="M81.949,90.686c-3.02,0.809-5.221,3.407-5.524,6.519l-4.653,47.834c-0.401,4.123,2.616,7.79,6.739,8.191
	c4.121,0.399,7.79-2.617,8.191-6.739l0.272-2.799l17.126-4.589l1.635,2.288c1.87,2.617,5.111,3.671,8.044,2.885
	c0.845-0.227,1.665-0.606,2.418-1.145c3.37-2.409,4.149-7.093,1.741-10.463L89.992,93.569
	C88.174,91.026,84.969,89.877,81.949,90.686z M88.526,127.747l0.893-9.185l5.366,7.507L88.526,127.747z"/>
<g>
</g>
<g>
</g>
<g>
</g>
<g>
</g>
<g>
</g>
<g>
</g>
<g>
</g>
<g>
</g>
<g>
</g>
<g>
</g>
<g>
</g>
<g>
</g>
<g>
</g>
<g>
</g>
<g>
</g>
</svg>
