<?xml version="1.0" encoding="iso-8859-1"?>
<!-- Generator: Adobe Illustrator 19.0.0, SVG Export Plug-In . SVG Version: 6.00 Build 0)  -->
<svg version="1.1" id="Capa_1" xmlns="http://www.w3.org/2000/svg" xmlns:xlink="http://www.w3.org/1999/xlink" x="0px" y="0px"
	 viewBox="0 0 512 512" style="enable-background:new 0 0 512 512;" xml:space="preserve">
<path style="fill:#D3CDBF;" d="M105.5,444.501v-407c0-16.569,13.431-30,30-30h210c16.569,0,30,13.431,30,30v407
	c0,16.569-13.431,30-30,30h-210C118.931,474.501,105.5,461.069,105.5,444.501z"/>
<path style="fill:#FFF9EB;" d="M135.5,474.501v-407c0-16.569,13.431-30,30-30h210c16.569,0,30,13.431,30,30v407
	c0,16.569-13.431,30-30,30h-210C148.931,504.501,135.5,491.069,135.5,474.501z"/>
<path style="fill:#D3CDBF;" d="M165.5,504.501h210c16.569,0,30-13.431,30-30v-407c0-11.102-6.036-20.789-15-25.977
	c-8.964,5.188-15,14.875-15,25.977v321.25c0,47.359-38.392,85.75-85.75,85.75H165.5c-11.102,0-20.789,6.036-25.977,15
	C144.711,498.465,154.398,504.501,165.5,504.501z"/>
<path style="fill:#FF5368;" d="M369.3,97.956L369.3,97.956c-4.098-3.107-7.233-2.413-13.431-7.783l0,0
	c-4.285-3.714-6.745-7.759-8.638-12.576l0,0c-2.631-7.015-9.658-9.773-11.441-9.773l0,0c-2.429-0.499,6.627-0.323-127.504-0.323
	c-6.241,0-12.185,3.814-14.679,10.499c-3.045,8.147-9.528,14.617-17.685,17.641c-5.956,2.208-10.422,7.619-10.422,15.195
	c0,46.069,0,280.277,0,320.744c0,6.499,3.95,12.472,10.071,14.655c14.632,5.192,18.044,18.274,19.099,20.237
	c2.716,5.071,8.1,8.029,13.611,8.029c14.995,0,106.282,0,124.438,0c6.46,0,12.346-3.966,14.514-10.051
	c3.018-8.47,9.718-15.191,18.196-18.215c5.649-2.015,10.071-7.501,10.071-15.069c0-37.53,0-283.391,0-320.874
	C375.5,105.33,373.113,100.851,369.3,97.956z"/>
<path d="M376,30H166c-20.678,0-37.5,16.822-37.5,37.5v398.2c-8.713-3.107-14.984-11.44-15-21.2v-407
	c0.02-12.391,10.12-22.48,22.5-22.5h210c4.33,0,8.53,1.229,12.16,3.56c1.21,0.79,2.62,1.2,4.05,1.2c2.57,0,4.93-1.29,6.32-3.44
	c1.079-1.68,1.449-3.689,1.02-5.649c-0.42-1.96-1.58-3.63-3.27-4.72c0,0,0,0-0.011,0C360.229,2.06,353.229,0,346.01,0H136
	c-10.02,0-19.44,3.899-26.52,10.979S98.5,27.479,98.5,37.5v407c0,10.02,3.9,19.439,10.98,26.52
	c5.435,5.435,12.248,8.995,19.653,10.357C132.371,498.781,147.671,512,166,512h210c20.678,0,37.5-16.822,37.5-37.5v-407
	C413.5,46.822,396.678,30,376,30z M398.5,474.5c0,12.406-10.094,22.5-22.5,22.5H166c-12.407,0-22.5-10.094-22.5-22.5v-407
	c0-12.406,10.093-22.5,22.5-22.5h210c12.406,0,22.5,10.094,22.5,22.5V474.5z"/>
<path d="M376,90c-12.406,0-22.5-10.094-22.5-22.5c0-4.143-3.357-7.5-7.5-7.5H196c-4.142,0-7.5,3.357-7.5,7.5
	c0,12.406-10.093,22.5-22.5,22.5c-4.142,0-7.5,3.357-7.5,7.5v347c0,4.143,3.358,7.5,7.5,7.5c12.407,0,22.5,10.094,22.5,22.5
	c0,4.143,3.358,7.5,7.5,7.5h150c4.143,0,7.5-3.357,7.5-7.5c0-12.406,10.094-22.5,22.5-22.5c4.143,0,7.5-3.357,7.5-7.5v-347
	C383.5,93.357,380.143,90,376,90z M368.5,374.525L276.025,467h-21.212L368.5,353.313V374.525z M368.5,332.099L233.599,467h-21.212
	L368.5,310.888V332.099z M368.5,289.673L199.835,458.338c-2.215-4.617-5.347-8.714-9.16-12.053L368.5,268.461V289.673z
	 M368.5,247.246L177.077,438.67c-1.169-0.362-2.362-0.669-3.577-0.917v-16.719l195-195V247.246z M368.5,204.819l-195,195v-21.212
	l195-195V204.819z M173.5,166.476L264.977,75h21.212L173.5,187.689V166.476z M173.5,208.903L307.403,75h21.211L173.5,230.115
	V208.903z M173.5,251.329L341.847,82.982c2.13,4.678,5.193,8.845,8.95,12.262L173.5,272.542V251.329z M368.5,162.394l-195,195
	v-21.212l195-195V162.394z M368.5,119.967l-195,195.001v-21.213l190.668-190.667c1.409,0.47,2.855,0.858,4.332,1.159V119.967z
	 M202.747,75h41.015L173.5,145.262v-41.015C188.171,101.256,199.756,89.671,202.747,75z M339.253,467H297.24l71.26-71.26v42.013
	C353.829,440.744,342.244,452.329,339.253,467z"/>
<g>
</g>
<g>
</g>
<g>
</g>
<g>
</g>
<g>
</g>
<g>
</g>
<g>
</g>
<g>
</g>
<g>
</g>
<g>
</g>
<g>
</g>
<g>
</g>
<g>
</g>
<g>
</g>
<g>
</g>
</svg>
